<svg xmlns="http://www.w3.org/2000/svg" viewBox="0 0 2614.53 1074.86"><defs><style>.cls-1{fill:#cde0d0;}.cls-2{fill:#86ba90;}.cls-3{fill:#628267;}.cls-4{fill:#a9e0b1;}.cls-5{fill:#628968;}.cls-6{fill:#dfa06e;}.cls-7{fill:#e5cdbd;}.cls-8{fill:#a35d2e;}.cls-9{fill:#2d2b14;}.cls-10{fill:#ccc883;}.cls-11{fill:#426347;}.cls-12{fill:#606058;}.cls-13{fill:#e2e0bf;}.cls-14{fill:#939282;}.cls-15{fill:#5b8262;}.cls-16{fill:#afaa66;}.cls-17{fill:#fff;}.cls-18{fill:#b2b19b;}.cls-19{fill:#d8d8d8;}.cls-20{fill:#918988;}.cls-21{fill:#2d2120;}.cls-22{fill:#7a7373;}.cls-23{fill:#492c28;}.cls-24{fill:#c18359;}.cls-25{fill:#412722;}.cls-26{fill:#aaa3a2;}.cls-27{fill:#665f5e;}.cls-28{fill:#6d5653;}.cls-29{fill:#443736;}.cls-30{fill:#ba7b50;}.cls-31{fill:#827170;}.cls-32{fill:#f4f4f4;}.cls-33{fill:#eab794;}.cls-34{fill:#eff4f0;}.cls-35{fill:#b6d8ba;}.cls-36{fill:#d3d090;}.cls-37{fill:#f5f3bb;}.cls-38{fill:#cec9c6;}.cls-39{fill:#393d39;}.cls-40{fill:#f4ede9;}.cls-41{fill:#4e514e;}.cls-42{fill:#bfbc80;}.cls-43{fill:#e5a980;}.cls-44{fill:#b27f5d;}.cls-45{fill:#8c6246;}.cls-46{fill:#b27e5b;}.cls-47{fill:#cecece;}.cls-48{fill:#301a18;}.cls-49{fill:#160806;}.cls-50{fill:#2d1d1b;}.cls-51{fill:#1e0a08;}.cls-52{fill:#d1cd79;}.cls-53{fill:#595321;}.cls-54{fill:#231f06;}.cls-55{fill:#ada542;}.cls-56{fill:#777232;}.cls-57{fill:#352f0c;}.cls-58{fill:#605a26;}.cls-59{fill:#87814b;}.cls-60{fill:#f2f2f2;}.cls-61{fill:#492f2c;}.cls-62{fill:#563a36;}.cls-63{fill:#472d29;}.cls-64{fill:#dbd69a;}.cls-65{fill:#56755b;}</style></defs><g id="Layer_2" data-name="Layer 2"><g id="_Layer_" data-name="&lt;Layer&gt;"><path class="cls-1" d="M166.9,1071.58s-143.17-354,66.28-565.37c270.16-272.64,619.26-44.75,750.26-51.39s138.37-268.24,529.77-299.49c302.63-24.16,799.63-26.06,693.6,401.33-80.61,324.94,367.91,156.63,280.58,515.61Z"/><path class="cls-2" d="M605.84,855.62s-34.06-39.74-2.1-65c0,0,23.35-14.13,42.38-13,0,0-27,45.23-18.24,49.73s26.42-52.57,26.42-52.57,53.13-5.16,70.22,3.06c0,0-45.42,37.17-35.85,39.38S747.29,783,747.29,783s49.45,8.42,46.82,38.59-19.68,39.48-27.17,38.67-51.29-17.52-52.25-11.38,25.42,26.19,43.88,27.12c0,0-34.86,38.45-58,27.36S675.39,874.66,661,868.06s-26.77-6.58-20.81.15,32.1,13.27,40.36,27.88,15.67,24.46-8.3,20.86-62.94-21.15-64.65-41.24Z"/><path class="cls-3" d="M769.81,822.39s-134.31-5.18-164,33.23c0,0-6.56,19.65-26.74,37.54L576,901.74s23.27-24.54,31.6-26C607.55,875.71,594.53,828.12,769.81,822.39Z"/><path class="cls-3" d="M579.1,893.16s-28.83,21.32-30.84,59.41l5.24.47s9.2-39.39,25.85-54.79S579.1,893.16,579.1,893.16Z"/><path class="cls-2" d="M486.74,805.65s54.19-30.35,28.9-71.53c0,0-20.23-25.29-41.9-31.79,0,0,11.56,61.41,0,62.86s-7.95-69.36-7.95-69.36-57.08-27.46-79.48-25.29c0,0,35.41,60,23.85,58.52s-51.3-62.13-51.3-62.13-58.52-10.84-67.92,23.84,5.78,52,14.45,54.19,64.31,1.44,62.86,8.67-39,18.78-60,12.28c0,0,23.12,57.08,53.47,54.19s39.74-21.68,58.52-23.12,32.51,3.61,23.12,8.67S402.21,807.3,387,820.2s-27.46,20.85.72,26.63,78.75,2.17,88.87-19.51Z"/><path class="cls-4" d="M317.68,701.61s151.72,49.13,169.06,104c0,0-.72,24.56,14.45,52.74v10.84s-15.89-36.85-24.56-41.91C476.63,827.32,510.58,779.64,317.68,701.61Z"/><path class="cls-4" d="M501.19,858.39s23.4,35.53,10.06,78.78l-6-1.61s5.84-47.64-6.4-71.6S501.19,858.39,501.19,858.39Z"/><path class="cls-2" d="M573,763.8s-71.43-40-38.1-94.29c0,0,26.67-33.33,55.24-41.9,0,0-15.24,80.95,0,82.85S600.57,619,600.57,619s75.23-36.2,104.76-33.34c0,0-46.67,79-31.43,77.15s67.62-81.91,67.62-81.91,77.14-14.28,89.52,31.43-7.62,68.57-19,71.43-84.77,1.9-82.86,11.43,51.43,24.76,79.05,16.19c0,0-30.48,75.24-70.48,71.42s-52.38-28.57-77.14-30.47-42.86,4.76-30.48,11.43S684.38,766,704.38,783s36.19,27.47-1,35.09-103.8,2.86-117.14-25.71Z"/><path class="cls-3" d="M795.81,626.65S595.81,691.42,573,763.8c0,0,.95,32.38-19.05,69.52v14.29s21-48.57,32.38-55.24C586.28,792.37,541.52,729.51,795.81,626.65Z"/><path class="cls-5" d="M553.9,833.32s-30.84,46.84-13.26,103.85l7.94-2.13s-7.71-62.8,8.43-94.38S553.9,833.32,553.9,833.32Z"/><path class="cls-6" d="M570.54,1060.81A139.91,139.91,0,0,0,710.46,920.89H430.62A139.92,139.92,0,0,0,570.54,1060.81Z"/><path class="cls-7" d="M605,1059.74A140,140,0,0,1,447.68,920.89h34.76A139.94,139.94,0,0,0,605,1059.74Z"/><path class="cls-6" d="M712.39,1067.93H428.69A17.26,17.26,0,0,1,446,1050.67H695.13a17.26,17.26,0,0,1,17.26,17.26Z"/><rect class="cls-8" x="426.02" y="920.89" width="287.62" height="4.29"/><path class="cls-9" d="M1954.64,1020.57s2.9,46.77,11.95,47.44c1.2.09,45.89.09,45.89.09l57.05-.33s-.37-13.75-17.05-16.66-44.59-14.62-54.69-36.66C1987.17,991.26,1954.64,1020.57,1954.64,1020.57Z"/><path class="cls-10" d="M1924.2,467.46s26.93,15.31,34.47,15.31,37.13-5.72,45.38-1.51,23.18,21.18,26,26.72c5,10-20.28,5.56-32.25-2.92a7.53,7.53,0,0,0-6-1.24c-6.19,1.35-19.07,3.69-25.29,1.39-8.36-3.09-52.4-6.53-52.4-6.53Z"/><path class="cls-11" d="M1719.29,258.88s27.92,198.43,74.15,216.2c22.81,8.77,123.62,28.65,153.44,30.65,0,0,7.31-5.93,5.53-30.05,0,0-105.62-38.77-120.63-59.86-22.33-31.39,13.87-128.22-14.15-157.69S1742.41,216,1719.29,258.88Z"/><path class="cls-12" d="M1728.7,676.93A345.92,345.92,0,0,0,1756,716c30,37.88,62.67,69.12,68.36,98.64a133.32,133.32,0,0,0,5.28,18.9c2.38,6.76,5.31,13.87,8.7,21.22,12.74,27.66,31.78,58.65,50.79,86.83,32.87,48.7,63.77,89.33,63.77,89.33l56.68-2.41c-2.27-5.68-27-72.93-60.06-155.1L1908,770.3q-2.76-6.85-5.49-13.64c-4.21-10.47-8.36-20.78-12.41-30.81l-55.78-138.61s-124.1-47-137-16.55C1686.71,595.81,1695.37,620.42,1728.7,676.93Z"/><path class="cls-9" d="M1823.4,887s-39.42,25.33-35.59,33.56c.5,1.09,22.29,40.11,22.29,40.11l28.1,49.65s11.82-7,6.23-23-9-46,5.35-65.62C1864.84,901.07,1823.4,887,1823.4,887Z"/><path class="cls-13" d="M1842.69,931.48s-24.64-21.73-29-37.67c0,0,101.52-121.63,123.54-148.9,1-1.25.75-2.62-.58-4.13C1920,722,1735.33,683.93,1711.19,646.37a116.32,116.32,0,0,1-15.6-36c-5.48-22.92-1.15-38.75-1.15-38.75l184.48-5.34s153.59,95.64,171,160.85S1842.69,931.48,1842.69,931.48Z"/><path class="cls-14" d="M1936.67,740.78C1920,722,1735.33,683.93,1711.19,646.37a116.32,116.32,0,0,1-15.6-36V587.06l78.4-12.33s22.24,68.41,88.09,94.07C1923.75,692.83,1935.44,735.47,1936.67,740.78Z"/><path class="cls-10" d="M1828.44,246.38c-37.32,9.64-99.19-24.93-99.19-24.93s24-16.15,32.93-51.61c.45-1.79.85-3.62,1.22-5.5,3.91-.83,11.28-2.4,19.17-4.06l28.5,25.53s-.65,10.61-4.22,28.83c-.61,3.18-1.32,6.6-2.14,10.23A88,88,0,0,1,1828.44,246.38Z"/><path class="cls-15" d="M1689.74,401.07c5.34,71.89-1.69,181.24,4.38,200.17,5.23,16.34,64.86,6.63,88.66,1.17,8.81-2,19.48-4.9,30.5-8.31,30.74-9.52,64.24-23.11,67.83-33.2a9.38,9.38,0,0,0,.34-1.16,9.28,9.28,0,0,0-.07-4.23c-1.2-5.14-5.81-10.71-6.36-23.44-.61-14.22-.51-31-1-49,0-2,0-4.24-.27-6.26v-.74l0-1.15c-.52-20.08-1.57-41.19-2.78-62.12-.78-13.15-1.67-26.17-2.7-38.65-2.69-32.21-6.3-60.85-11.08-78.95-7.81-29.52-25-48.77-40.73-62.88L1805,222.62c-12.67,2.77-27.63.93-41.17-5.48-14.65-7-19.71-11.94-22.26-10.06C1707.76,233.18,1683.43,313.18,1689.74,401.07Z"/><path class="cls-11" d="M1813.28,594.1c30.74-9.52,64.24-23.11,67.83-33.2a9.38,9.38,0,0,0,.34-1.16c0-1.41,0-2.82-.07-4.23-1.2-5.14-5.81-10.71-6.36-23.44-.61-14.22-.51-31-1-49,0-2,0-4.24-.27-6.26v-.74l0-1.15L1749.38,316.62S1665.84,490.58,1813.28,594.1Z"/><path class="cls-16" d="M1811.07,185.81s-.65,10.61-4.22,28.83c-27.83-9-40.46-34.14-44.67-44.8.45-1.79.85-3.62,1.22-5.5,3.91-.83,11.28-2.4,19.17-4.06Z"/><path class="cls-10" d="M1820.66,201.88s-60.7-10.13-53.81-47.83,3.7-64.41,42.75-59.53,43.92,20.63,44.69,33.77S1836.63,203.55,1820.66,201.88Z"/><rect class="cls-17" x="2076.39" y="381.59" width="5.63" height="147.38" transform="translate(3915.93 1530.83) rotate(-162)"/><rect class="cls-17" x="1904.56" y="515.34" width="154.66" height="9.25" transform="translate(3952.23 1082.12) rotate(-178.78)"/><path class="cls-10" d="M1907.58,530.32s49.68,13.1,68.31,11.72,34.13-10.23,36.47-14.86,7.27-12.83-5.41-11.31-30,4.21-30.54,1.77,10.34-2.2,10.34-2.2,3.29-4.79-.85-5-16.22-3.45-20.7-1.21-8.63,10.53-11.91,10.18-41.57-17.25-41.57-17.25Z"/><path class="cls-15" d="M1731.61,267s5.87,200.29,49.86,223.05c21.71,11.24,119.71,42.11,149.13,47.38,0,0,7.92-5.09,8.81-29.26,0,0-100.71-50.18-113.29-72.79-18.74-33.66,27.91-125.91,3.31-158.3S1759.32,226.93,1731.61,267Z"/><path class="cls-18" d="M1763.6,179.71s-.71-14.36,7.4-22.59c0,0-2.82-14.39,2.39-16.77s6.3,9.73,8.69,7.84,13-10.92,17.6-24.21,46.31,2.8,51.17,5.2,20.51-6.39,23.55-13.51c0,0-8.69-7.6-12.6-13.29s-31.28-44.14-69.51-33.23S1748.85,100,1751,117.09,1747.94,174,1763.6,179.71Z"/><path class="cls-19" d="M621.62,246.48,654,243.39a5.93,5.93,0,0,1,6,3.64l24.45,58.85a5.94,5.94,0,0,1-4.92,8.2l-33.7,3.22a6,6,0,0,1-6.1-3.75l-23.14-59A6,6,0,0,1,621.62,246.48Z"/><path class="cls-20" d="M1032.28,1024.15l-17.19,9.12s-92.92-98.53-115.26-193.08c-4-16.89-5.6-33.54-3.89-49.33,0,0-1.35-4.28-3.71-11.86-.11-.33-.21-.67-.32-1-1-3.32-2.27-7.23-3.65-11.65-4.49-14.29-10.65-33.84-17.67-56.1-16.18-51.22-53.17-166.75-69-214.8l113.61-41.11s12.91,29.43,31.45,109.41c2.86,10.44,5.72,22,8.39,34.56,3,14.25,5.86,29.83,8.21,46.65a714.72,714.72,0,0,1,6.81,95.77c.07,14.31-.28,29.15-1.13,44.46-.62,11.23,1,26.19,4.17,43.21C987.44,906.21,1032.28,1024.15,1032.28,1024.15Z"/><path class="cls-21" d="M1094.49,1067.68h-91.86s-3.43-14.65,2.6-24.62c5.34-8.82,3.29-13.84-.66-21.14a35.71,35.71,0,0,0,15.47,2.91c4.57-.26,9.41-2.34,13.66-4.8,4,4.5,20.88,23.69,26.17,27.49C1065.87,1051.83,1092.64,1050.3,1094.49,1067.68Z"/><path class="cls-22" d="M963.27,645,891.91,778c-1-3.32-2.27-7.23-3.65-11.65-4.49-14.29-10.65-33.84-17.67-56.1-16.18-51.22-53.17-166.75-69-214.8l113.61-41.11s12.91,29.43,31.45,109.41c2.86,10.44,5.72,22,8.39,34.56C958.09,612.55,960.92,628.13,963.27,645Z"/><path class="cls-6" d="M654,351.56c-.57.5-27.79-27.34-42.33-42.76l14.56-8.86,79.51,49.91Z"/><path class="cls-21" d="M799.76,1038.93s-2.13,15.6,3.85,28.75h38.06s.28-11.36-9.41-25.62S799.76,1038.93,799.76,1038.93Z"/><path class="cls-23" d="M874.76,23.66c.51-2.43,7-28.48,47.43-22.87,0,0-20.18-1.08-25.1,7,0,0,15.32-8.39,25.68-3s13.45,25.67,12.42,32-10.67,25.62-17.92,26.14a21.48,21.48,0,0,1-8.43-1.45A94.62,94.62,0,0,1,912.56,72c10.31,35.71-11.83,65-24.78,59.08-8.31-3.79-13.36,10.64-13.36,10.64l-72.67-83.2S844-.33,874.76,23.66Z"/><path class="cls-6" d="M800.39,246.77c9.48,6.58,21.36,12,36.29,15.45,55.93,12.92,77.37-34.36,85.42-66.81a48.27,48.27,0,0,0-19-5.82c-4-.48-8.3-.79-11.82-1-6.28-4.81-15.64-24.5-17.71-55.07l-2.63.71-44.08,12.06s2,14,3,27.26c.76,10.37.88,20.27-1.08,22.69-3.44.75-5.51,1.24-5.51,1.24s0,0,0,0A283.82,283.82,0,0,0,800.39,246.77Z"/><path class="cls-24" d="M826.91,146.33s2,14,3,27.26c25-2.5,36.57-26.28,41.08-39.32Z"/><path class="cls-6" d="M819.45,159.49s59.28-3.27,56.67-40.16,3.3-62.15-34.66-61.62S797.15,72.83,795,85.35,804,159.39,819.45,159.49Z"/><path class="cls-25" d="M795.31,64.72C803.67,53,810.76,54.91,814.87,58,846,37.85,868.7,62.66,868.7,62.66c5.86,26.18,26,40,26,40s-10.31,7.44-35.65,2.83c-7.74-1.41-14.92-6.32-21.15-12.46a138.38,138.38,0,0,0,25.85,27.33c-30.7-11.6-45.6-52.08-47.1-56.37C813.3,67.47,806.68,75,805,82.1c-2.28,9.6-2.22,29-7.9,28.78C797.1,110.88,782.78,82.34,795.31,64.72Z"/><path class="cls-6" d="M806.86,194.54s96.57-23.45,138.56,11.19l-21,292.67L735.56,452.77s5.32-18.52,41.53-67.77S797.56,263.53,806.86,194.54Z"/><path class="cls-26" d="M866.15,465.82s-.11,1-.3,2.88c-.09.81-.2,1.8-.32,2.94-.81,7.59-2.35,22.14-4.34,41.07C856,562.34,847.88,642.07,842.34,705c-4.34,49.2-7.09,88.14-5.61,94.39,4.48,18.81,0,243.73,0,243.73-16.05,7.7-40.39,0-40.39,0s-42.76-202.68-36.77-230.85-4-52.22-4-52.22c-33.2-154.61-29.57-240.3-23-281.32a172,172,0,0,1,5.68-25.05,52.1,52.1,0,0,1,2.27-6.16C813.78,427.8,866.15,465.82,866.15,465.82Z"/><path class="cls-27" d="M927.44,498.39a186.37,186.37,0,0,1-66.25,14.32,222.38,222.38,0,0,1-54.51-5.17c-36.21-7.88-63.79-22.46-74.08-28.82a172,172,0,0,1,5.68-25.05c22.29-15.88,77.42-.69,122.45,16.15l4.8,1.82C900,484.83,927.44,498.39,927.44,498.39Z"/><path class="cls-28" d="M961.44,289.2c-4.66,35.21-23.31,78.3-30,101.49,0,0,11.13,80.52.5,102.62-1.21,2.53-2.7,4.29-4.53,5.08-39.39,17.16-192.76.5-199.23-49-2.35-18,58.42-81.21,62-88.88,1.47-3.18,3-13.46-4.09-34.78C776,356.89,757.33,392.85,738.57,399c-20.62,6.74-102.15-54-102.15-54s-.47-7.38,9.84-14.36c6.62-4.49,21.85-6,21.85-6l52.13,23.33c6.54-11.2,22.84-88.64,41-123.6,13.68-26.28,50.22-30.09,50.22-30.09s15.2,24.12,52,20.7S907,189,907,189s32.62,4.33,42.67,12.44C951.38,202.87,967.55,243.07,961.44,289.2Z"/><path class="cls-29" d="M931.47,390.69s11.13,80.52.5,102.62c-28.69-14.4-66.09-45.48-54.71-94.06,16.53-70.57,84.18-110,84.18-110C956.78,324.41,938.13,367.5,931.47,390.69Z"/><path class="cls-6" d="M907,336.57s-40.84,5.92-44.1,9-14.53,20.77-13.14,26.93S851,385,853.48,384.54s10.65-16.1,13.74-16.82,5.62-2.83,6-1.45-6.26,8-5.94,9.83,5.56-.32,7.91-4,8.21-5.44,9.09-7.7,4.93-9.76,10.43-9.42S907,336.57,907,336.57Z"/><polygon class="cls-30" points="946.72 334.96 906.97 336.57 893.38 355.1 947.43 356.91 946.72 334.96"/><path class="cls-31" d="M907,189s47.37,5.62,60.41,25.93c16.49,25.68,74.75,110.85,73.5,136.62,0,0-36.3,14.46-133.87,6.71,0,0-1.77-14.76,18.75-26.6,0,0,52.38-7.17,58.16-12.26L945,278.09Z"/><path class="cls-32" d="M614.57,247.12,647,244a6,6,0,0,1,6.06,3.64l24.45,58.85a6,6,0,0,1-4.93,8.2l-33.7,3.22a6,6,0,0,1-6.1-3.75l-23.13-59A5.94,5.94,0,0,1,614.57,247.12Z"/><path class="cls-33" d="M611.62,308.8s-8.55-14.75-7.91-18.38,9.49-20.49,14-22.17c8.12-3,19.53-4.84,16.39,3.71-2.07,5.65-10.26,13.83-8.84,16.39s.88,11.59.88,11.59Z"/><path class="cls-34" d="M1901.87,945.21c-11.6,74.37-87.49,121.73-165.33,121.73H1582.36l12.06-433.47s147.11-47.21,184-2.3c32.37,39.35,120.15,195.11,124.76,287.3A129.29,129.29,0,0,1,1901.87,945.21Z"/><path class="cls-15" d="M1492.61,679.37s208-106.15,247.37-36.81c20.92,36.82,78.48,183.72,82.73,275.9,4.13,89.58-73.47,148.48-153.3,148.48H1527.63Z"/><path class="cls-35" d="M1531.71,738.25c-1.75,9-18.59,17.4-43.58,24.8-4.4,1.31-9.06,2.59-13.93,3.83-85,21.73-235.69,33.85-250,27.45-19.84-8.85-141.62-441.53-141.62-441.53s116.24-4.37,208.56-6.5c31.59-.72,60.36-1.18,80.73-1.12a50,50,0,0,1,7,.49,33.2,33.2,0,0,1,20.54,10.51c14.86,16,18.55,47.52,32.31,82.39,13.6,34.49,30.31,77.52,46.15,120.23,4.08,11,8.1,22,12,32.8,1.11,3.06,2.19,6.09,3.28,9.11C1516.51,666.21,1534.54,723.64,1531.71,738.25Z"/><path class="cls-35" d="M1901.87,945.21c-11.6,74.37-87.49,121.73-165.33,121.73h-75.63C1711.34,1032.76,1756.94,927.41,1901.87,945.21Z"/><path class="cls-2" d="M1493.11,600.71c-3.87-.63-8.85-1.45-14.51-2.41a13.38,13.38,0,0,1-2.67-3.63c-2.27-5-.71-19.38,1.9-35.87-15.84-42.71-32.55-85.74-46.15-120.23-13.76-34.87-17.45-66.42-32.31-82.39a33.2,33.2,0,0,0-20.54-10.51c-12.27.17-25.23.38-38.6.63-4.74,9.42-12.93,18.3-27.06,25.74-63.08,33.2-16.29,101.62-16.29,101.62.46.3,25,49.15,25,49.15-.09-3.41,3.22-9.52,8.89-17.29,4.18,29.2,11,59,19.12,80.37-4.45,22.55-15.89,56.14-22,81.84-4.9,20.49-6.42,35.93,1.67,36.69a17.76,17.76,0,0,0,3,0,41.77,41.77,0,0,0,4.92,22.47c15.81,30.55,91.84,36.05,150.61,36.16,25-7.4,41.83-15.77,43.58-24.8C1534.54,723.64,1516.51,666.21,1493.11,600.71Z"/><path class="cls-2" d="M1780.47,1000.34c-29.76,41.34-75.41,67.85-126.26,67l-218.61.11-104.73,0,117.84-388.1s298.25-29.67,335,9.9c17.08,18.37,26.66,101.56,32,185.42C1818.8,922,1805,966.24,1780.47,1000.34Z"/><path class="cls-15" d="M1780.47,1000.34c-29.76,41.34-75.41,67.85-126.26,67l-218.61.11c25.73-21.6,106.63-82.87,193.25-80C1694.51,989.71,1746.66,988.77,1780.47,1000.34Z"/><path class="cls-36" d="M1511.72,407.8s18.16,26.88,28.52,83.38c9.08,49.48,17,67.75,30.14,77.9s86.1,40.11,86.1,40.11L1651,622s-107-14.57-119-32.46S1474.16,466,1477.72,441.65,1511.72,407.8,1511.72,407.8Z"/><path class="cls-37" d="M1773.74,998.05c-1,10.44,13.56,13,30.39,13.81s11.74,4.29,34.8,8.46,32.3-2.13,34-5.25c1.49-2.76-9.23-7.08-20.65-12-1.44-.61-2.88-1.24-4.32-1.87-12.86-5.65-20.08-17.18-30.1-27.88-9.5-10.12-18.51-42.55-18.51-42.55L1768,924.11s8.8,29.18,11.86,41.64c1.79,7.33-.86,15.52-3.21,21.76A40.77,40.77,0,0,0,1773.74,998.05Z"/><path class="cls-38" d="M1804.13,1011.86c16.82.84,11.74,4.29,34.8,8.46s32.3-2.13,34-5.25c1.49-2.76-9.23-7.08-20.65-12l-.18.2a65.7,65.7,0,0,1-34.93.41c-15.25-4.14-30-13.25-40.51-16.2a40.77,40.77,0,0,0-2.88,10.54C1772.77,1008.49,1787.3,1011,1804.13,1011.86Z"/><path class="cls-39" d="M1461.7,626.47s208.22-15.67,247.42,9.07,102.07,312.91,102.07,312.91-3.88,3.11-12.55,4c-8.05.87-25.81-3.87-25.81-3.87s-90.35-128.94-96.71-161.42-4.81-61.47-19.31-62.24-195.14,22-222.47-26.18-4.73-95.8-4.73-95.8Z"/><path class="cls-37" d="M1694.06,1031.5c-1,10.43,13.56,13,30.39,13.81s11.74,4.28,34.8,8.46,32.3-2.14,34-5.25c1.49-2.77-9.24-7.09-20.66-12-1.44-.61-2.88-1.24-4.32-1.87-12.86-5.66-20.07-17.19-30.1-27.88-9.49-10.13-18.51-42.55-18.51-42.55l-31.33-6.7s8.79,29.19,11.85,41.65c1.8,7.33-.86,15.52-3.21,21.75A40.84,40.84,0,0,0,1694.06,1031.5Z"/><path class="cls-40" d="M1724.45,1045.31c16.83.84,11.74,4.28,34.8,8.46s32.3-2.14,34-5.25c1.49-2.77-9.24-7.09-20.66-12l-.18.19a65.62,65.62,0,0,1-34.93.42c-15.25-4.14-30-13.26-40.51-16.21a40.84,40.84,0,0,0-2.88,10.55C1693.1,1041.93,1707.62,1044.47,1724.45,1045.31Z"/><path class="cls-41" d="M1420.91,639.37s185,8.76,223.19,35S1733.91,991,1733.91,991s-4,3-12.7,3.56c-8.08.56-25.64-4.87-25.64-4.87s-85.26-132.35-90.36-165.06-2.41-61.61-16.86-62.95-195.86,14.35-221.29-34.82S1420.91,639.37,1420.91,639.37Z"/><path class="cls-6" d="M1486.83,232.33c-8.21-5.42-18.4-6.63-25.58-6.68,2-1.78,5.64-2.23,5.64-2.23-4.39-1-14.59,2.78-14.59,2.78-60.09-27.88-75.85,62.3-76,83.49s-1.58,45.48-33.63,62.35c-63.07,33.2-16.29,101.61-16.29,101.61.46.31,25,49.17,25,49.17-.42-17.16,84.26-101.9,127.1-126.11,11-14,16.26-39.8,16.66-41.83-3.1,20.49-7.39,31.82-11,38.12C1521.13,363.32,1508.58,246.69,1486.83,232.33Z"/><path class="cls-37" d="M1413.14,376.84s16.33.71,33.55,2.34c11.71,1.11,24.2,2.4,30.8,5.16,16.3,6.81,14.59,35.68-19.62,30.33S1410.74,385.4,1413.14,376.84Z"/><path class="cls-37" d="M1476,397.89c.2.1,4.88,24.83-17.52,23.84-14.7-.65-46.41-18.44-43.61-31,1.33-6,12.44-21.51,14.67-56.95l2.68.71,45,12.07s-2,14.29-2.93,27.81C1473.55,385.69,1473.52,396.5,1476,397.89Z"/><path class="cls-42" d="M1477.27,346.53s-2,14.29-2.93,27.81c-25.47-2.42-37.41-26.61-42.08-39.88Z"/><path class="cls-43" d="M1427.88,329.18s-12-22-14-40.31c-1.43-13.05,8.33-60.43,55.92-50.34a65.52,65.52,0,0,1,26.4,12c10,7.74,24,24,4.38,64.57l-5.31,13.8Z"/><path class="cls-37" d="M1484.94,359.9s-60.45-3-58-40.64-3.67-63.34,35-63,45.25,15.19,47.48,27.95S1500.72,359.72,1484.94,359.9Z"/><path class="cls-6" d="M1489.54,257.18s-19.47,43-45.28,47.85-36.36-2.7-36.36-2.7,20.49-14.16,26.33-40.88C1434.23,261.45,1478.47,235.34,1489.54,257.18Z"/><path class="cls-43" d="M1485.2,260.48s11.69,10.68,14.07,20.46,2.41,29.58,8.2,29.3c0,0,14.45-29.17,1.59-47.07C1495.41,244.19,1485.2,260.48,1485.2,260.48Z"/><path class="cls-44" d="M1545.42,629.61c-4.89,5.85-20.17,7.65-36.49,10.33-12.85,2.12-26.34,4.78-35.94,10.42-21.79,12.79-93,56-113.85,54.06-8.09-.76-6.58-16.2-1.67-36.69,7.71-32.36,23.86-77.3,23.86-96.84,0-10.67,3.54-35.91,8.28-64.76.39-2.33.78-4.67,1.17-7,9.38-56.1,22.36-122.25,22.36-122.25s14.48,31.59,42.69,31.59,21.65-24.09,21.65-24.09,25.74,3,31.82,9.58,21.51,34.87,24.57,42.59c0,0,.63,9.82-23.7,14.5,0,0,5.92,26.68,6.63,44.46.52,13.13-9,54.24-11.69,79.81-1,9.06-1.1,16.17.37,19.39,1.88,4.13,8,8.24,14.9,12.28C1534.13,615,1551.23,622.66,1545.42,629.61Z"/><path class="cls-45" d="M1520.38,607c15.62,26.62-42.35,34.63-51.94,40.26-21.79,12.8-88.43,59.18-109.3,57.21-8.09-.76-6.58-16.2-1.67-36.69,7.71-32.36,23.86-77.3,23.86-96.84,0-10.67,3.54-35.91,8.28-64.76L1414.73,482s26.91,69.56,52.57,81a215,215,0,0,0,37.81,12.3c-1,9.06-1.1,16.17.37,19.39C1507.36,598.8,1513.45,602.91,1520.38,607Z"/><path class="cls-37" d="M1405.42,397.66s-21.48-13-42.24,11.7S1377.94,611,1408.71,620c34.17,10.09,132.89-1.62,132.89-1.62L1539.7,603s-105.1-20.15-109.46-25.76S1416.34,400.52,1405.42,397.66Z"/><path class="cls-46" d="M1413.14,376.84s-44.1,4-56.91,18.48-16.56,53.82-16.56,53.82,38.84,31.35,85.64,19.18Z"/><rect class="cls-19" x="1551.91" y="626.69" width="58.25" height="6.88"/><path class="cls-47" d="M1597.79,632.63c.57-2.28,53.56-85.47,53.56-85.47h117.88L1710.1,630.4Z"/><path class="cls-17" d="M1602.75,633.57c.57-2.28,53.73-86.41,53.73-86.41h112.75L1713,633.57Z"/><path class="cls-2" d="M1702.15,590.64a9.4,9.4,0,0,1-8.2,6.11c-3.37,0-5.17-2.73-4-6.11a9.41,9.41,0,0,1,8.2-6.1C1701.52,584.54,1703.31,587.27,1702.15,590.64Z"/><path class="cls-37" d="M1531.13,602.08s34.22-6.63,38.08-5,25.39,21,23.18,24.84-11,6.62-21,3.31-31.46-5-35.33-9.94S1531.13,602.08,1531.13,602.08Z"/><path class="cls-34" d="M1599.31,949.1c-12.5,72.13-81.1,117.84-151.43,117.84H1306.1l11.09-433.47s135.28-47.21,169.26-2.3c29.76,39.35,110.49,195.11,114.74,287.3A140.37,140.37,0,0,1,1599.31,949.1Z"/><path class="cls-35" d="M1599.31,949.1c-12.5,72.13-81.1,117.84-151.43,117.84H1334.42C1387.53,1030.94,1459,931.48,1599.31,949.1Z"/><path class="cls-2" d="M1379.52,1066.62q-1.59.12-3.18.21c-2.24.12-4.49.19-6.75.23l-2.25,0H1225.56V1067l-8.18.1c-14.6.18-29.85.35-44,.47l-7,.06-2.55,0c-14,.09-26.33.13-35.15.07a232.69,232.69,0,0,1-35.06-2.7,156.48,156.48,0,0,1-39.07-11.18,125.94,125.94,0,0,1-12.43-6.31,121.93,121.93,0,0,1-15.38-10.48c-12.57-10-23.45-22.76-32.71-38.41a210,210,0,0,1-17-37c-6.16-17.35-11.11-37.1-14.91-59.42-5.45-31.88-8.56-69-9.5-111.91q-.57-25.92-.09-54.7.75-46,4.1-99.62c3.12-50.26,7.88-105.7,14.18-166.73,5.73-55.74,12.35-94.7,22-103.58,14.21-13.09,43.83-18.36,64.44-20.47h0c12.79-1.31,22.09-1.41,22.09-1.41,25.17,0,47.56,18.08,55.64,44.94,16.45,54.7,45.83,152.49,76.4,254.78.15.51.31,1,.46,1.54q2.64,8.81,5.28,17.67c.26.89.54,1.79.81,2.69l5.36-2.39.18-.08c7.33-3.25,15.63-6.81,24.58-10.44h0q7-2.82,14.41-5.68c14-5.36,29.09-10.67,44.4-15.23,6.79-2,13.63-3.93,20.43-5.6,8.73-2.17,17.4-4,25.84-5.36l.73-.12,3-.45c36.4-5.35,68-1.63,81.06,21.42,20.92,36.93,78.47,184.25,82.72,276.71C1524.58,1003.42,1454.86,1061,1379.52,1066.62Z"/><path class="cls-34" d="M1152.09,682.71s-72.77-296.46-78-321.38c-2.33-11.11-9.55-15.12-16.81-16.15,12.79-1.31,22.09-1.41,22.09-1.41,25.18,0,47.56,18,55.64,44.81,17.62,58.42,50.07,166.15,83,275.87C1216.26,664.41,1152.09,682.71,1152.09,682.71Z"/><path class="cls-15" d="M1420.21,825.28c-19.47-32.19-3.12-38.23-6.11-110.34s-36.56-66.15-50.49-80.09c-2.54-2.56-4.71-7.8-6.75-14.81l-3,.45-.73.12C1344.7,622,1336,623.8,1327.3,626c-6.8,1.67-13.64,3.56-20.43,5.6-15.31,4.56-30.41,9.87-44.4,15.23q-7.44,2.85-14.41,5.68c-12,75.65-30.69,414.63-30.69,414.63l.45.47c15.22-.14,31.68-.32,47.33-.5l6.64-.09v.07h107l.44-.26.29-.18c28.73-17.82,22.32-53.58,15.56-76-2.73-24-13.32-52-22-78.15,2.68-7.94,6.45-12.49,22.64-18.46,18-6.63,22.71-34.94,22.71-34.94,4.8,12.66-6.19,30.13-6.48,30.59C1412.61,888.94,1439.47,857.09,1420.21,825.28Z"/><g id="girl_2" data-name="girl 2"><path class="cls-48" d="M1181.19,679.15s-107.94,47-127.53,46.17-140.33-36.77-140.33-36.77l3.08,20.77s93.17,53.58,125.74,56.62c32.07,3,141.73-28.78,152.32-35.49S1212,685.94,1181.19,679.15Z"/><path class="cls-49" d="M1197.41,506.15s39.81-7.56,59.65,6.92c35.92,26.24,37.85,116.68,51.32,130.16s45.91,7.72,48.8,77.43-12.92,75.55,5.91,106.67-8,62.26-8,62.26,11-17.17,6.27-29.57c0,0-4.57,27.36-22,33.77s-20,11.12-22.73,20.53c0,0-148.32-76-148.48-129.9S1139,677.11,1153.3,653.75c0,0-6.35,10-7.13,21.12,0,0-8.55-16.39,6.27-31.64s-17.39-46.83-12.62-83.39C1143.1,534.74,1160.71,507.25,1197.41,506.15Z"/><path class="cls-25" d="M1168.07,730.51c9.48,6.58,21.37,12,36.29,15.44,55.93,12.93,77.37-34.35,85.42-66.8a48.1,48.1,0,0,0-19-5.82c-4-.48-8.3-.79-11.82-1-6.28-4.81-15.64-24.5-17.71-55.07l-2.63.71-44.08,12.06s2,14,3,27.26c.76,10.36.88,20.27-1.08,22.69-3.44.75-5.5,1.24-5.5,1.24l0,0A283.82,283.82,0,0,0,1168.07,730.51Z"/><path class="cls-50" d="M1194.59,630.07s2,14,3,27.26c25-2.5,36.56-26.28,41.07-39.32Z"/><path class="cls-25" d="M1187.13,643.23s59.28-3.28,56.68-40.16,3.29-62.15-34.67-61.62-44.31,15.12-46.44,27.64S1171.64,643.12,1187.13,643.23Z"/><path class="cls-51" d="M1163,548.46c8.36-11.75,15.45-9.81,19.56-6.75,31.09-20.12,53.83,4.69,53.83,4.69,5.86,26.18,26,40,26,40s-10.31,7.44-35.65,2.83c-7.74-1.41-14.91-6.32-21.15-12.46a138.72,138.72,0,0,0,25.85,27.33c-30.7-11.61-45.6-52.08-47.1-56.37-3.38,3.51-10,11.07-11.68,18.14-2.27,9.6-12.1,24.61-17.78,24.36C1154.9,590.2,1150.46,566.08,1163,548.46Z"/><path class="cls-52" d="M1306.66,851c5.36-27.37,22.81-136.71,5.36-171.89-6.27-12.64-30.87-13.78-57.86-12.67-8.4,5.42-40.4,25.91-53.54,23.35l-.74-.17c-6.19-1.55-8.52-5.9-3.36-9.65a118.21,118.21,0,0,0-30,1.84c-9.37,1.76-34.66,14.85-34.66,14.85s12.74,23,31.51,30.95c-3.19,28.56,1.56,41.16,31.19,107.14,25,55.76-3.38,106-3.38,106s147.4,118.52,148.22,58.17C1340.05,953.51,1299.82,886,1306.66,851Z"/><path class="cls-53" d="M1183.91,1069.63a27.38,27.38,0,0,1-19.72-12l-2.28-3.43c-16.78-25.4-23.31-103.19-61.05-186.06-9.19-20.17-42.19-23.8-51.18-46.61,0,0-22.15-73.92,42.38-76.1s172.83,205.68,174.54,227.48C1268.26,994,1309.27,1083.78,1183.91,1069.63Z"/><path class="cls-54" d="M927.41,1067.93h91.85s3.44-14.65-2.59-24.62c-5.34-8.82-3.29-13.84.66-21.14a35.74,35.74,0,0,1-15.47,2.91c-4.58-.26-9.42-2.34-13.66-4.8-4,4.5-20.88,23.69-26.17,27.49C956,1052.08,929.26,1050.55,927.41,1067.93Z"/><path class="cls-55" d="M1297,707.81s12,108.76-65.57,131.55-99.54-100.07-36.94-108.91S1297,707.81,1297,707.81Z"/><path class="cls-53" d="M1047.58,766.8c-5.53,41.46-27.13,172.34-65.23,236.19-12.28,20.58,30.95,32.12,31.18,32.06,5.8-1.52,15.46-10.76,19.91-14.77,30.93-27.88,93.72-106.82,93.72-170.1,0-30.86.54-89.79-21.9-104.77C1091.45,736.19,1049.77,750.33,1047.58,766.8Z"/><path class="cls-56" d="M1238.68,1067.93s-3.41-4.74-9.34-13.73c-7.07-10.7-14.88-31.76-24.37-58.75-10-28.33-21.78-63.19-36.55-99.46-4.56-11.19-9.4-22.52-14.54-33.84-9.2-20.17-34.49-17.38-43.48-40.19,0,0-35.11-79.06,29.42-81.24S1327,952.21,1334,972.91C1341.74,995.56,1379.38,1089.64,1238.68,1067.93Z"/><path class="cls-57" d="M994.84,1067.93h91.85s3.43-14.65-2.6-24.62c-5.34-8.82-3.29-13.84.66-21.14a35.71,35.71,0,0,1-15.47,2.91c-4.57-.26-9.41-2.34-13.65-4.8-4,4.5-20.89,23.69-26.18,27.49C1023.45,1052.08,996.69,1050.55,994.84,1067.93Z"/><path class="cls-58" d="M1205,995.45c-10-28.33-21.78-63.19-36.55-99.46,3.86-27.47,12.18-51.51,26.17-61.2C1194.59,834.79,1228.53,939.94,1205,995.45Z"/><path class="cls-59" d="M1101.19,763.86c-5.53,41.46-13.32,175.28-51.42,239.13-12.28,20.58,31,32.12,31.19,32.06,5.79-1.52,15.45-10.76,19.9-14.77,30.94-27.88,93.73-106.82,93.73-170.1,0-30.86-36.22-87.31-58.65-102.29C1122.12,738.66,1103.39,747.39,1101.19,763.86Z"/><path class="cls-60" d="M902.37,635.11l94.06-10a6.09,6.09,0,0,1,6.32,3.88l33.65,88.44a6.07,6.07,0,0,1-5.43,8.22l-93.34,3.77a6.08,6.08,0,0,1-5.84-3.73l-34.38-82.21A6.07,6.07,0,0,1,902.37,635.11Z"/><path class="cls-17" d="M894.2,636l94.06-10a6.08,6.08,0,0,1,6.32,3.88l33.65,88.43a6.07,6.07,0,0,1-5.43,8.23l-93.34,3.76a6.06,6.06,0,0,1-5.84-3.72l-34.38-82.21A6.07,6.07,0,0,1,894.2,636Z"/><path class="cls-2" d="M946.34,677.26c-1.15-3.16.47-5.71,3.63-5.71a9,9,0,0,1,7.8,5.71c1.15,3.16-.48,5.72-3.64,5.72A9,9,0,0,1,946.34,677.26Z"/><path class="cls-2" d="M897,644.33c-.56-1.55.24-2.81,1.79-2.81a4.45,4.45,0,0,1,3.83,2.81c.56,1.55-.24,2.8-1.79,2.8A4.44,4.44,0,0,1,897,644.33Z"/><path class="cls-25" d="M1289.78,679.15s-130.37,48-150,47c-12.66-.64-117.9-37.63-117.9-37.63l-9.44,17.87s102.43,65.84,130.59,65.51c55.59-.64,149.4-34.77,160-41.48S1320.54,685.94,1289.78,679.15Z"/><path class="cls-61" d="M1021.92,688.55s-9.44-14.54-18.85-15-25.66,6.42-31.21,7.49-21.39,6.2-16.68,13.89,26.51,9.41,35.92,7.7,21.38,3.76,21.38,3.76Z"/><path class="cls-62" d="M1005.63,674s-15-6.86-19.24-8.14-3.42,0-2.14,4.07,9,7.92,9,9.19S1005.63,674,1005.63,674Z"/><path class="cls-63" d="M903.89,680.85s9.43-14.92,12.52-15.53c9.41-1.86,9.41,10.53,7.41,18.52-2.14,8.58-9.39,16.67-11.39,16S901.67,688.74,903.89,680.85Z"/><path class="cls-25" d="M903.53,683.84s-3,16.74,12.88,25.48Z"/><path class="cls-17" d="M1176,622s5.61-2.21,21.38-.94c0,0-.84,6.16-12.47,6.76C1178.35,628.18,1176,622,1176,622Z"/><path class="cls-64" d="M1222.61,702.83s11.66,36.91,51.71,45.31c0,0,66.12-20.37,33.2-65.43C1307.52,682.71,1275,658.53,1222.61,702.83Z"/></g><rect class="cls-65" y="1067.93" width="2614.53" height="6.93" rx="3.16"/></g></g></svg>