<svg id="_Layer_" data-name="&lt;Layer&gt;" xmlns="http://www.w3.org/2000/svg" viewBox="0 0 546.97 489.1"><defs><style>.cls-1{fill:#86ba90;}.cls-2{fill:#628267;}.cls-3{fill:#a9e0b1;}.cls-4{fill:#628968;}.cls-5{fill:#dfa06e;}.cls-6{fill:#e5cdbd;}.cls-7{fill:#a35d2e;}</style></defs><path class="cls-1" d="M1511.58,1434.08s-34.07-39.74-2.1-65c0,0,23.34-14.14,42.38-13,0,0-27,45.23-18.25,49.73s26.43-52.57,26.43-52.57,53.13-5.15,70.22,3.07c0,0-45.42,37.17-35.85,39.38s58.62-34.27,58.62-34.27,49.45,8.41,46.82,38.58-19.68,39.48-27.17,38.68-51.3-17.52-52.25-11.39,25.42,26.19,43.88,27.13c0,0-34.86,38.45-58,27.35s-25.15-28.69-39.59-35.28-26.78-6.58-20.81.15,32.1,13.26,40.36,27.87,15.67,24.47-8.3,20.86-62.94-21.15-64.65-41.23Z" transform="translate(-1193.72 -1157.28)"/><path class="cls-2" d="M1675.55,1400.84s-134.31-5.17-164,33.24c0,0-6.56,19.65-26.75,37.53l-3.14,8.58s23.27-24.54,31.6-26C1513.29,1454.17,1500.26,1406.58,1675.55,1400.84Z" transform="translate(-1193.72 -1157.28)"/><path class="cls-2" d="M1484.83,1471.61S1456,1492.94,1454,1531l5.23.47s9.21-39.39,25.85-54.79S1484.83,1471.61,1484.83,1471.61Z" transform="translate(-1193.72 -1157.28)"/><path class="cls-1" d="M1392.48,1384.1s54.18-30.34,28.9-71.53c0,0-20.23-25.28-41.91-31.78,0,0,11.56,61.41,0,62.85s-7.94-69.36-7.94-69.36-57.08-27.45-79.48-25.28c0,0,35.4,60,23.84,58.52s-51.29-62.14-51.29-62.14-58.53-10.84-67.92,23.84,5.78,52,14.45,54.19,64.3,1.45,62.86,8.67-39,18.79-60,12.28c0,0,23.12,57.08,53.47,54.19s39.73-21.67,58.52-23.12,32.51,3.61,23.12,8.67-41.18,1.66-56.36,14.56-27.45,20.84.73,26.62,78.75,2.17,88.86-19.5Z" transform="translate(-1193.72 -1157.28)"/><path class="cls-3" d="M1223.41,1280.06s151.73,49.13,169.07,104c0,0-.73,24.57,14.45,52.74v10.84s-15.9-36.85-24.57-41.9C1382.36,1405.78,1416.32,1358.09,1223.41,1280.06Z" transform="translate(-1193.72 -1157.28)"/><path class="cls-3" d="M1406.93,1436.84s23.4,35.54,10.06,78.79l-6-1.62s5.84-47.64-6.4-71.6S1406.93,1436.84,1406.93,1436.84Z" transform="translate(-1193.72 -1157.28)"/><path class="cls-1" d="M1478.69,1342.25s-71.43-40-38.1-94.28c0,0,26.67-33.34,55.24-41.91,0,0-15.24,81,0,82.86s10.47-91.43,10.47-91.43,75.24-36.19,104.77-33.33c0,0-46.67,79-31.43,77.14s67.62-81.91,67.62-81.91,77.14-14.28,89.52,31.43-7.62,68.57-19,71.43-84.76,1.91-82.85,11.43,51.42,24.76,79,16.19c0,0-30.47,75.24-70.47,71.43s-52.38-28.57-77.15-30.48-42.85,4.77-30.47,11.43,54.28,2.19,74.28,19.19,36.19,27.48-.95,35.1-103.81,2.85-117.14-25.72Z" transform="translate(-1193.72 -1157.28)"/><path class="cls-2" d="M1701.54,1205.11s-200,64.76-222.85,137.14c0,0,1,32.38-19,69.53v14.28s20.95-48.57,32.38-55.24C1492,1370.82,1447.26,1308,1701.54,1205.11Z" transform="translate(-1193.72 -1157.28)"/><path class="cls-4" d="M1459.64,1411.78s-30.85,46.83-13.26,103.85l7.93-2.13s-7.7-62.8,8.44-94.39S1459.64,1411.78,1459.64,1411.78Z" transform="translate(-1193.72 -1157.28)"/><path class="cls-5" d="M1476.28,1639.26a139.92,139.92,0,0,0,139.92-139.91H1336.36A139.91,139.91,0,0,0,1476.28,1639.26Z" transform="translate(-1193.72 -1157.28)"/><path class="cls-6" d="M1510.71,1638.19a139.95,139.95,0,0,1-157.3-138.84h34.76A139.94,139.94,0,0,0,1510.71,1638.19Z" transform="translate(-1193.72 -1157.28)"/><path class="cls-5" d="M1618.13,1646.38h-283.7a17.26,17.26,0,0,1,17.26-17.26h249.18a17.26,17.26,0,0,1,17.26,17.26Z" transform="translate(-1193.72 -1157.28)"/><rect class="cls-7" x="138.04" y="342.06" width="287.62" height="4.29"/></svg>