<?xml version="1.0"?>
<svg xmlns="http://www.w3.org/2000/svg" xmlns:xlink="http://www.w3.org/1999/xlink" xmlns:svgjs="http://svgjs.com/svgjs" version="1.1" width="512" height="512" x="0" y="0" viewBox="0 0 512 512" style="enable-background:new 0 0 512 512" xml:space="preserve" class=""><circle r="256" cx="256" cy="256" fill="#f5f3bb" shape="circle" transform="matrix(1,0,0,1,0,0)"/><g transform="matrix(0.7,0,0,0.7,76.80000000000001,76.80000000000001)">
<path xmlns="http://www.w3.org/2000/svg" style="" d="M121,135c0,74.443,60.557,135,135,135s135-60.557,135-135S330.443,0,256,0S121,60.557,121,135z" fill="#86ba90" data-original="#45c1f1" class=""/>
<path xmlns="http://www.w3.org/2000/svg" style="" d="M391,135C391,60.557,330.443,0,256,0v270C330.443,270,391,209.443,391,135z" fill="#5b8262" data-original="#44a4ec" class=""/>
<path xmlns="http://www.w3.org/2000/svg" style="" d="M31,497c0,8.291,6.709,15,15,15h420c8.291,0,15-6.709,15-15c0-107.52-87.48-197-195-197h-60  C118.48,300,31,389.48,31,497z" fill="#86ba90" data-original="#45c1f1" class=""/>
<path xmlns="http://www.w3.org/2000/svg" style="" d="M286,300h-30v212h210c8.291,0,15-6.709,15-15C481,389.48,393.52,300,286,300z" fill="#5b8262" data-original="#44a4ec" class=""/>
<g xmlns="http://www.w3.org/2000/svg">
</g>
<g xmlns="http://www.w3.org/2000/svg">
</g>
<g xmlns="http://www.w3.org/2000/svg">
</g>
<g xmlns="http://www.w3.org/2000/svg">
</g>
<g xmlns="http://www.w3.org/2000/svg">
</g>
<g xmlns="http://www.w3.org/2000/svg">
</g>
<g xmlns="http://www.w3.org/2000/svg">
</g>
<g xmlns="http://www.w3.org/2000/svg">
</g>
<g xmlns="http://www.w3.org/2000/svg">
</g>
<g xmlns="http://www.w3.org/2000/svg">
</g>
<g xmlns="http://www.w3.org/2000/svg">
</g>
<g xmlns="http://www.w3.org/2000/svg">
</g>
<g xmlns="http://www.w3.org/2000/svg">
</g>
<g xmlns="http://www.w3.org/2000/svg">
</g>
<g xmlns="http://www.w3.org/2000/svg">
</g>
</g></svg>
